<svg xmlns="http://www.w3.org/2000/svg" viewBox="0 -50 1071 600" width="1071" height="600">
  <defs>
    <linearGradient id="goldRay" x1="0%" y1="0%" x2="100%" y2="100%">
      <stop offset="0%" stop-color="#F6DFA0"/>
      <stop offset="50%" stop-color="#D2AC57"/>
      <stop offset="100%" stop-color="#A9823C"/>
    </linearGradient>
    <linearGradient id="silverRay" x1="0%" y1="0%" x2="100%" y2="100%">
      <stop offset="0%" stop-color="#F2F4F7"/>
      <stop offset="50%" stop-color="#C2C9D3"/>
      <stop offset="100%" stop-color="#8E97A3"/>
    </linearGradient>
    <radialGradient id="pearlHub" cx="35%" cy="35%" r="75%">
      <stop offset="0%" stop-color="#FFFFFF"/>
      <stop offset="100%" stop-color="#DCE2EA"/>
    </radialGradient>
    <linearGradient id="goldText" x1="0%" y1="0%" x2="0%" y2="100%">
      <stop offset="0%" stop-color="#F6DFA0"/>
      <stop offset="55%" stop-color="#D2AC57"/>
      <stop offset="100%" stop-color="#A9823C"/>
    </linearGradient>
    <radialGradient id="silverDot" cx="35%" cy="35%" r="75%">
      <stop offset="0%" stop-color="#FFFFFF"/>
      <stop offset="100%" stop-color="#C7CFDB"/>
    </radialGradient>
    <radialGradient id="midDot" cx="35%" cy="35%" r="75%">
      <stop offset="0%" stop-color="#E9D8AE"/>
      <stop offset="100%" stop-color="#BCA274"/>
    </radialGradient>
  </defs>
  
  <g id="horaion-logo-full">
  <g id="icon-starburst">
    <path d="M 262.60 216.00 L 260.00 66.00 L 257.40 216.00 Z" fill="url(#goldRay)"/>
    <path d="M 271.13 217.35 L 289.65 110.92 L 266.03 216.34 Z" fill="#0A1B33"/>
    <path d="M 279.24 220.34 L 310.51 138.05 L 274.44 218.35 Z" fill="#0A1B33"/>
    <path d="M 286.61 224.86 L 346.67 130.29 L 282.28 221.97 Z" fill="#0A1B33"/>
    <path d="M 292.95 230.73 L 402.84 117.16 L 289.27 227.05 Z" fill="url(#silverRay)"/>
    <path d="M 298.03 237.72 L 371.42 185.55 L 295.14 233.39 Z" fill="#0A1B33"/>
    <path d="M 301.65 245.56 L 402.28 201.07 L 299.66 240.76 Z" fill="#0A1B33"/>
    <path d="M 303.66 253.97 L 387.50 234.64 L 302.65 248.87 Z" fill="#0A1B33"/>
    <path d="M 304.00 262.60 L 454.00 260.00 L 304.00 257.40 Z" fill="url(#goldRay)"/>
    <path d="M 302.65 271.13 L 409.08 289.65 L 303.66 266.03 Z" fill="#0A1B33"/>
    <path d="M 299.66 279.24 L 381.95 310.51 L 301.65 274.44 Z" fill="#0A1B33"/>
    <path d="M 295.14 286.61 L 389.71 346.67 L 298.03 282.28 Z" fill="#0A1B33"/>
    <path d="M 289.27 292.95 L 402.84 402.84 L 292.95 289.27 Z" fill="url(#silverRay)"/>
    <path d="M 282.28 298.03 L 334.45 371.42 L 286.61 295.14 Z" fill="#0A1B33"/>
    <path d="M 274.44 301.65 L 318.93 402.28 L 279.24 299.66 Z" fill="#0A1B33"/>
    <path d="M 266.03 303.66 L 285.36 387.50 L 271.13 302.65 Z" fill="#0A1B33"/>
    <path d="M 257.40 304.00 L 260.00 454.00 L 262.60 304.00 Z" fill="url(#goldRay)"/>
    <path d="M 248.87 302.65 L 230.35 409.08 L 253.97 303.66 Z" fill="#0A1B33"/>
    <path d="M 240.76 299.66 L 209.49 381.95 L 245.56 301.65 Z" fill="#0A1B33"/>
    <path d="M 233.39 295.14 L 173.33 389.71 L 237.72 298.03 Z" fill="#0A1B33"/>
    <path d="M 227.05 289.27 L 117.16 402.84 L 230.73 292.95 Z" fill="url(#silverRay)"/>
    <path d="M 221.97 282.28 L 148.58 334.45 L 224.86 286.61 Z" fill="#0A1B33"/>
    <path d="M 218.35 274.44 L 117.72 318.93 L 220.34 279.24 Z" fill="#0A1B33"/>
    <path d="M 216.34 266.03 L 132.50 285.36 L 217.35 271.13 Z" fill="#0A1B33"/>
    <path d="M 216.00 257.40 L 66.00 260.00 L 216.00 262.60 Z" fill="url(#goldRay)"/>
    <path d="M 217.35 248.87 L 110.92 230.35 L 216.34 253.97 Z" fill="#0A1B33"/>
    <path d="M 220.34 240.76 L 138.05 209.49 L 218.35 245.56 Z" fill="#0A1B33"/>
    <path d="M 224.86 233.39 L 130.29 173.33 L 221.97 237.72 Z" fill="#0A1B33"/>
    <path d="M 230.73 227.05 L 117.16 117.16 L 227.05 230.73 Z" fill="url(#silverRay)"/>
    <path d="M 237.72 221.97 L 185.55 148.58 L 233.39 224.86 Z" fill="#0A1B33"/>
    <path d="M 245.56 218.35 L 201.07 117.72 L 240.76 220.34 Z" fill="#0A1B33"/>
    <path d="M 253.97 216.34 L 234.64 132.50 L 248.87 217.35 Z" fill="#0A1B33"/>
    <circle cx="260" cy="260" r="42" fill="none" stroke="url(#goldRay)" stroke-width="1.6"/>
    <circle cx="260" cy="260" r="34" fill="url(#pearlHub)"/>
    <circle cx="260" cy="260" r="34" fill="none" stroke="url(#silverRay)" stroke-width="1.3"/>
  </g>
  <g id="wordmark-horaion">
    <path d="M458.256 295.444C465.508 295.148 472.612 295.0 479.864 295.0C487.116 295.0 494.368 295.148 501.62 295.444V291.004L494.516 290.56C487.70799999999997 290.116 486.968 288.932 486.968 277.24V244.236C490.964 243.94 493.332 243.94 499.252 243.94H533.884C539.804 243.94 542.172 243.94 546.168 244.236V277.24C546.168 288.932 545.428 290.116 538.62 290.56L531.516 291.004V295.444C538.768 295.148 545.872 295.0 553.124 295.0C560.376 295.0 567.628 295.148 574.88 295.444V291.004L567.776 290.56C560.968 290.116 560.228 288.932 560.228 277.24V210.788C560.228 199.096 560.968 197.912 567.776 197.46800000000002L574.88 197.024V192.584C567.628 192.88 560.376 193.02800000000002 553.124 193.02800000000002C545.872 193.02800000000002 538.768 192.88 531.516 192.584V197.024L538.62 197.46800000000002C545.428 197.912 546.168 199.096 546.168 210.788V237.132C543.06 237.28 539.952 237.428 533.884 237.428H499.252C493.18399999999997 237.428 489.928 237.28 486.968 237.132V210.788C486.968 199.096 487.70799999999997 197.912 494.516 197.46800000000002L501.62 197.024V192.584C494.368 192.88 487.116 193.02800000000002 479.864 193.02800000000002C472.612 193.02800000000002 465.508 192.88 458.256 192.584V197.024L465.36 197.46800000000002C472.168 197.912 472.908 199.096 472.908 210.788V277.24C472.908 288.932 472.168 290.116 465.36 290.56L458.256 291.004Z" fill="#0A1B33"/>
    <path d="M584.372 262.884C584.372 283.752 597.544 297.96 616.636 297.96C639.428 297.96 655.708 282.124 655.708 259.924C655.708 239.94400000000002 641.204 225.58800000000002 620.928 225.58800000000002C599.3199999999999 225.58800000000002 584.372 240.832 584.372 262.884ZM598.136 257.852C598.136 240.092 605.24 230.472 618.264 230.472C631.88 230.472 641.944 245.272 641.944 265.4C641.944 282.42 634.396 293.076 622.408 293.076C607.904 293.076 598.136 278.868 598.136 257.852Z" fill="#0A1B33"/>
    <path d="M665.0519999999999 295.444C671.12 295.148 677.188 295.0 683.256 295.0C690.3599999999999 295.0 697.3159999999999 295.148 704.42 295.444V291.004L696.7239999999999 290.56C690.064 290.116 689.7679999999999 289.672 689.7679999999999 279.904V254.448C689.7679999999999 245.568 695.688 238.168 702.9399999999999 238.168C707.38 238.168 710.4879999999999 240.24 712.856 244.976H715.9639999999999L717.2959999999999 227.216C715.668 226.18 713.0039999999999 225.58800000000002 710.3399999999999 225.58800000000002C705.9 225.58800000000002 701.164 227.95600000000002 698.0559999999999 231.656L689.7679999999999 241.424V226.18L688.4359999999999 225.58800000000002C680.8879999999999 228.696 673.192 230.768 665.348 231.656V235.8H670.824C676.7439999999999 235.8 677.336 236.836 677.336 246.60399999999998V279.904C677.336 289.228 676.8919999999999 290.264 671.86 290.56L665.0519999999999 291.004Z" fill="#0A1B33"/>
    <path d="M726.64 278.572C726.64 290.116 733.596 296.776 745.288 296.776C747.952 296.776 750.468 296.332 751.504 295.592L769.856 282.864L769.116 295.444C772.9639999999999 295.148 776.812 295.0 780.66 295.0C784.36 295.0 787.912 295.148 791.612 295.444V291.004L785.84 290.708C782.288 290.56 781.696 289.376 781.696 282.124V255.04C781.696 233.43200000000002 775.48 225.58800000000002 758.312 225.58800000000002C751.948 225.58800000000002 746.028 227.216 740.404 230.62L732.56 235.356V244.976L736.408 246.012L738.332 241.424C741.292 234.46800000000002 742.92 233.43200000000002 749.728 233.43200000000002C763.64 233.43200000000002 769.412 238.90800000000002 769.856 252.376L755.204 255.04C735.076 258.74 726.64 265.696 726.64 278.572ZM739.3679999999999 276.5C739.3679999999999 271.024 742.328 265.844 746.768 263.032C750.468 260.812 758.608 258.74 769.856 257.112V276.648C765.564 282.716 756.24 288.34 750.468 288.34C744.548 288.34 739.3679999999999 282.864 739.3679999999999 276.5Z" fill="url(#goldText)"/>
    <path d="M800.512 295.444C806.728 295.148 812.796 295.0 819.012 295.0C825.228 295.0 831.296 295.148 837.512 295.444V291.004L830.704 290.56C825.672 290.264 825.228 289.228 825.228 279.904V226.18L823.896 225.58800000000002C816.348 228.696 808.652 230.768 800.808 231.656V235.8H806.284C812.204 235.8 812.796 236.836 812.796 246.60399999999998V279.904C812.796 289.228 812.352 290.264 807.32 290.56L800.512 291.004Z" fill="url(#goldText)"/>
    <path d="M846.116 262.884C846.116 283.752 859.288 297.96 878.38 297.96C901.172 297.96 917.452 282.124 917.452 259.924C917.452 239.94400000000002 902.948 225.58800000000002 882.672 225.58800000000002C861.064 225.58800000000002 846.116 240.832 846.116 262.884ZM859.88 257.852C859.88 240.092 866.984 230.472 880.008 230.472C893.624 230.472 903.688 245.272 903.688 265.4C903.688 282.42 896.14 293.076 884.152 293.076C869.648 293.076 859.88 278.868 859.88 257.852Z" fill="#0A1B33"/>
    <path d="M924.576 295.444C930.644 295.148 936.86 295.0 942.928 295.0C948.996 295.0 955.212 295.148 961.28 295.444V291.004L954.62 290.56C949.588 290.264 949.144 289.228 949.144 279.904V248.52800000000002C949.144 241.868 958.912 234.61599999999999 967.9399999999999 234.61599999999999C977.856 234.61599999999999 984.3679999999999 242.01600000000002 984.3679999999999 253.412V295.444C988.216 295.148 992.212 295.0 996.06 295.0C1000.204 295.0 1004.2 295.148 1008.3439999999999 295.444V291.004L1002.276 290.56C997.244 290.264 996.8 289.376 996.8 279.904V251.34C996.8 234.024 988.66 225.58800000000002 972.084 225.58800000000002C966.608 225.58800000000002 963.5 226.62400000000002 960.3919999999999 229.288L949.144 239.056V226.18L947.812 225.58800000000002C940.264 228.696 932.568 230.768 924.7239999999999 231.656V235.8H930.1999999999999C936.12 235.8 936.712 236.836 936.712 246.60399999999998V279.904C936.712 289.228 936.268 290.264 931.236 290.56L924.576 291.004Z" fill="#0A1B33"/>
  </g>
  <g id="accent-dots">
    <circle cx="771.01" cy="208.59" r="6.5" fill="url(#silverDot)"/>
    <circle cx="795.01" cy="203.59" r="7.5" fill="url(#midDot)"/>
    <circle cx="819.01" cy="198.59" r="9" fill="url(#goldText)"/>
  </g>
  </g>
</svg>