<svg xmlns="http://www.w3.org/2000/svg" version="1.1" xmlns:xlink="http://www.w3.org/1999/xlink" xmlns:svgjs="http://svgjs.dev/svgjs" width="1440" height="560" preserveAspectRatio="none" viewBox="0 0 1440 560"><g mask="url(&quot;#SvgjsMask1737&quot;)" fill="none"><rect width="1440" height="560" x="0" y="0" fill="url(&quot;#SvgjsLinearGradient1738&quot;)"></rect><path d="M-59.9 357.44L-59.9 357.44" stroke="rgba(23, 143, 214, 1)" stroke-width="1.5"></path><path d="M-59.9 357.44L79.11 376.31" stroke="rgba(23, 143, 214, 1)" stroke-width="1.5"></path><path d="M-59.9 357.44L73.9 524.62" stroke="rgba(23, 143, 214, 1)" stroke-width="1.5"></path><path d="M-59.9 357.44L-67.62 638.32" stroke="rgba(23, 143, 214, 1)" stroke-width="1.5"></path><path d="M-59.9 357.44L259.29 389.65" stroke="rgba(23, 143, 214, 1)" stroke-width="1.5"></path><path d="M-67.62 638.32L-67.62 638.32" stroke="rgba(23, 143, 214, 1)" stroke-width="1.5"></path><path d="M-67.62 638.32L103.52 655.11" stroke="rgba(23, 143, 214, 1)" stroke-width="1.5"></path><path d="M-67.62 638.32L73.9 524.62" stroke="rgba(23, 143, 214, 1)" stroke-width="1.5"></path><path d="M-67.62 638.32L218.08 685.69" stroke="rgba(23, 143, 214, 1)" stroke-width="1.5"></path><path d="M79.11 376.31L79.11 376.31" stroke="rgba(23, 143, 214, 1)" stroke-width="1.5"></path><path d="M79.11 376.31L73.9 524.62" stroke="rgba(23, 143, 214, 1)" stroke-width="1.5"></path><path d="M79.11 376.31L259.29 389.65" stroke="rgba(23, 143, 214, 1)" stroke-width="1.5"></path><path d="M79.11 376.31L346.14 356.84" stroke="rgba(23, 143, 214, 1)" stroke-width="1.5"></path><path d="M79.11 376.31L103.52 655.11" stroke="rgba(23, 143, 214, 1)" stroke-width="1.5"></path><path d="M73.9 524.62L73.9 524.62" stroke="rgba(23, 143, 214, 1)" stroke-width="1.5"></path><path d="M73.9 524.62L103.52 655.11" stroke="rgba(23, 143, 214, 1)" stroke-width="1.5"></path><path d="M103.52 655.11L103.52 655.11" stroke="rgba(23, 143, 214, 1)" stroke-width="1.5"></path><path d="M103.52 655.11L218.08 685.69" stroke="rgba(23, 143, 214, 1)" stroke-width="1.5"></path><path d="M103.52 655.11L372.65 659.47" stroke="rgba(23, 143, 214, 1)" stroke-width="1.5"></path><path d="M103.52 655.11L259.29 389.65" stroke="rgba(23, 143, 214, 1)" stroke-width="1.5"></path><path d="M259.29 389.65L259.29 389.65" stroke="rgba(23, 143, 214, 1)" stroke-width="1.5"></path><path d="M259.29 389.65L346.14 356.84" stroke="rgba(23, 143, 214, 1)" stroke-width="1.5"></path><path d="M259.29 389.65L407.87 558.07" stroke="rgba(23, 143, 214, 1)" stroke-width="1.5"></path><path d="M259.29 389.65L73.9 524.62" stroke="rgba(23, 143, 214, 1)" stroke-width="1.5"></path><path d="M218.08 685.69L218.08 685.69" stroke="rgba(23, 143, 214, 1)" stroke-width="1.5"></path><path d="M218.08 685.69L372.65 659.47" stroke="rgba(23, 143, 214, 1)" stroke-width="1.5"></path><path d="M218.08 685.69L73.9 524.62" stroke="rgba(23, 143, 214, 1)" stroke-width="1.5"></path><path d="M218.08 685.69L407.87 558.07" stroke="rgba(23, 143, 214, 1)" stroke-width="1.5"></path><path d="M218.08 685.69L505.02 711.86" stroke="rgba(23, 143, 214, 1)" stroke-width="1.5"></path><path d="M346.14 356.84L346.14 356.84" stroke="rgba(23, 143, 214, 1)" stroke-width="1.5"></path><path d="M346.14 356.84L514.59 347.69" stroke="rgba(23, 143, 214, 1)" stroke-width="1.5"></path><path d="M346.14 356.84L407.87 558.07" stroke="rgba(23, 143, 214, 1)" stroke-width="1.5"></path><path d="M346.14 356.84L495.89 539.27" stroke="rgba(23, 143, 214, 1)" stroke-width="1.5"></path><path d="M407.87 558.07L407.87 558.07" stroke="rgba(23, 143, 214, 1)" stroke-width="1.5"></path><path d="M407.87 558.07L495.89 539.27" stroke="rgba(23, 143, 214, 1)" stroke-width="1.5"></path><path d="M407.87 558.07L372.65 659.47" stroke="rgba(23, 143, 214, 1)" stroke-width="1.5"></path><path d="M407.87 558.07L505.02 711.86" stroke="rgba(23, 143, 214, 1)" stroke-width="1.5"></path><path d="M372.65 659.47L372.65 659.47" stroke="rgba(23, 143, 214, 1)" stroke-width="1.5"></path><path d="M372.65 659.47L505.02 711.86" stroke="rgba(23, 143, 214, 1)" stroke-width="1.5"></path><path d="M372.65 659.47L495.89 539.27" stroke="rgba(23, 143, 214, 1)" stroke-width="1.5"></path><path d="M514.59 347.69L514.59 347.69" stroke="rgba(23, 143, 214, 1)" stroke-width="1.5"></path><path d="M514.59 347.69L654.28 410.2" stroke="rgba(23, 143, 214, 1)" stroke-width="1.5"></path><path d="M514.59 347.69L495.89 539.27" stroke="rgba(23, 143, 214, 1)" stroke-width="1.5"></path><path d="M514.59 347.69L659.97 529.8" stroke="rgba(23, 143, 214, 1)" stroke-width="1.5"></path><path d="M495.89 539.27L495.89 539.27" stroke="rgba(23, 143, 214, 1)" stroke-width="1.5"></path><path d="M495.89 539.27L659.97 529.8" stroke="rgba(23, 143, 214, 1)" stroke-width="1.5"></path><path d="M505.02 711.86L505.02 711.86" stroke="rgba(23, 143, 214, 1)" stroke-width="1.5"></path><path d="M505.02 711.86L495.89 539.27" stroke="rgba(23, 143, 214, 1)" stroke-width="1.5"></path><path d="M654.28 410.2L654.28 410.2" stroke="rgba(23, 143, 214, 1)" stroke-width="1.5"></path><path d="M654.28 410.2L659.97 529.8" stroke="rgba(23, 143, 214, 1)" stroke-width="1.5"></path><path d="M654.28 410.2L824.04 344.2" stroke="rgba(23, 143, 214, 1)" stroke-width="1.5"></path><path d="M659.97 529.8L659.97 529.8" stroke="rgba(23, 143, 214, 1)" stroke-width="1.5"></path><path d="M659.97 529.8L680.2 639.24" stroke="rgba(23, 143, 214, 1)" stroke-width="1.5"></path><path d="M659.97 529.8L857.81 540.6" stroke="rgba(23, 143, 214, 1)" stroke-width="1.5"></path><path d="M659.97 529.8L789 691.27" stroke="rgba(23, 143, 214, 1)" stroke-width="1.5"></path><path d="M680.2 639.24L680.2 639.24" stroke="rgba(23, 143, 214, 1)" stroke-width="1.5"></path><path d="M680.2 639.24L789 691.27" stroke="rgba(23, 143, 214, 1)" stroke-width="1.5"></path><path d="M680.2 639.24L505.02 711.86" stroke="rgba(23, 143, 214, 1)" stroke-width="1.5"></path><path d="M822.46 195.12L822.46 195.12" stroke="rgba(23, 143, 214, 1)" stroke-width="1.5"></path><path d="M822.46 195.12L824.04 344.2" stroke="rgba(23, 143, 214, 1)" stroke-width="1.5"></path><path d="M822.46 195.12L972.15 245.75" stroke="rgba(23, 143, 214, 1)" stroke-width="1.5"></path><path d="M822.46 195.12L981.49 390.67" stroke="rgba(23, 143, 214, 1)" stroke-width="1.5"></path><path d="M822.46 195.12L654.28 410.2" stroke="rgba(23, 143, 214, 1)" stroke-width="1.5"></path><path d="M822.46 195.12L1101.04 200.9" stroke="rgba(23, 143, 214, 1)" stroke-width="1.5"></path><path d="M822.46 195.12L965.22 -80.06" stroke="rgba(23, 143, 214, 1)" stroke-width="1.5"></path><path d="M824.04 344.2L824.04 344.2" stroke="rgba(23, 143, 214, 1)" stroke-width="1.5"></path><path d="M824.04 344.2L981.49 390.67" stroke="rgba(23, 143, 214, 1)" stroke-width="1.5"></path><path d="M824.04 344.2L972.15 245.75" stroke="rgba(23, 143, 214, 1)" stroke-width="1.5"></path><path d="M824.04 344.2L857.81 540.6" stroke="rgba(23, 143, 214, 1)" stroke-width="1.5"></path><path d="M824.04 344.2L943.94 529.84" stroke="rgba(23, 143, 214, 1)" stroke-width="1.5"></path><path d="M857.81 540.6L857.81 540.6" stroke="rgba(23, 143, 214, 1)" stroke-width="1.5"></path><path d="M857.81 540.6L943.94 529.84" stroke="rgba(23, 143, 214, 1)" stroke-width="1.5"></path><path d="M857.81 540.6L789 691.27" stroke="rgba(23, 143, 214, 1)" stroke-width="1.5"></path><path d="M857.81 540.6L981.49 390.67" stroke="rgba(23, 143, 214, 1)" stroke-width="1.5"></path><path d="M789 691.27L789 691.27" stroke="rgba(23, 143, 214, 1)" stroke-width="1.5"></path><path d="M789 691.27L943.94 529.84" stroke="rgba(23, 143, 214, 1)" stroke-width="1.5"></path><path d="M965.22 -80.06L965.22 -80.06" stroke="rgba(23, 143, 214, 1)" stroke-width="1.5"></path><path d="M965.22 -80.06L1155.61 -74.38" stroke="rgba(23, 143, 214, 1)" stroke-width="1.5"></path><path d="M965.22 -80.06L1155.59 110.05" stroke="rgba(23, 143, 214, 1)" stroke-width="1.5"></path><path d="M965.22 -80.06L1243.43 -41.94" stroke="rgba(23, 143, 214, 1)" stroke-width="1.5"></path><path d="M965.22 -80.06L1101.04 200.9" stroke="rgba(23, 143, 214, 1)" stroke-width="1.5"></path><path d="M972.15 245.75L972.15 245.75" stroke="rgba(23, 143, 214, 1)" stroke-width="1.5"></path><path d="M972.15 245.75L1101.04 200.9" stroke="rgba(23, 143, 214, 1)" stroke-width="1.5"></path><path d="M972.15 245.75L981.49 390.67" stroke="rgba(23, 143, 214, 1)" stroke-width="1.5"></path><path d="M972.15 245.75L1093.46 352.49" stroke="rgba(23, 143, 214, 1)" stroke-width="1.5"></path><path d="M981.49 390.67L981.49 390.67" stroke="rgba(23, 143, 214, 1)" stroke-width="1.5"></path><path d="M981.49 390.67L1093.46 352.49" stroke="rgba(23, 143, 214, 1)" stroke-width="1.5"></path><path d="M981.49 390.67L943.94 529.84" stroke="rgba(23, 143, 214, 1)" stroke-width="1.5"></path><path d="M981.49 390.67L1118.39 496.42" stroke="rgba(23, 143, 214, 1)" stroke-width="1.5"></path><path d="M943.94 529.84L943.94 529.84" stroke="rgba(23, 143, 214, 1)" stroke-width="1.5"></path><path d="M943.94 529.84L1118.39 496.42" stroke="rgba(23, 143, 214, 1)" stroke-width="1.5"></path><path d="M1155.61 -74.38L1155.61 -74.38" stroke="rgba(23, 143, 214, 1)" stroke-width="1.5"></path><path d="M1155.61 -74.38L1243.43 -41.94" stroke="rgba(23, 143, 214, 1)" stroke-width="1.5"></path><path d="M1155.61 -74.38L1155.59 110.05" stroke="rgba(23, 143, 214, 1)" stroke-width="1.5"></path><path d="M1155.59 110.05L1155.59 110.05" stroke="rgba(23, 143, 214, 1)" stroke-width="1.5"></path><path d="M1155.59 110.05L1101.04 200.9" stroke="rgba(23, 143, 214, 1)" stroke-width="1.5"></path><path d="M1155.59 110.05L1306.12 85.24" stroke="rgba(23, 143, 214, 1)" stroke-width="1.5"></path><path d="M1155.59 110.05L1243.43 -41.94" stroke="rgba(23, 143, 214, 1)" stroke-width="1.5"></path><path d="M1101.04 200.9L1101.04 200.9" stroke="rgba(23, 143, 214, 1)" stroke-width="1.5"></path><path d="M1101.04 200.9L1093.46 352.49" stroke="rgba(23, 143, 214, 1)" stroke-width="1.5"></path><path d="M1101.04 200.9L981.49 390.67" stroke="rgba(23, 143, 214, 1)" stroke-width="1.5"></path><path d="M1093.46 352.49L1093.46 352.49" stroke="rgba(23, 143, 214, 1)" stroke-width="1.5"></path><path d="M1118.39 496.42L1118.39 496.42" stroke="rgba(23, 143, 214, 1)" stroke-width="1.5"></path><path d="M1118.39 496.42L1239.44 560.21" stroke="rgba(23, 143, 214, 1)" stroke-width="1.5"></path><path d="M1118.39 496.42L1093.46 352.49" stroke="rgba(23, 143, 214, 1)" stroke-width="1.5"></path><path d="M1133.39 661.1L1133.39 661.1" stroke="rgba(23, 143, 214, 1)" stroke-width="1.5"></path><path d="M1133.39 661.1L1254.16 695.82" stroke="rgba(23, 143, 214, 1)" stroke-width="1.5"></path><path d="M1133.39 661.1L1239.44 560.21" stroke="rgba(23, 143, 214, 1)" stroke-width="1.5"></path><path d="M1133.39 661.1L1118.39 496.42" stroke="rgba(23, 143, 214, 1)" stroke-width="1.5"></path><path d="M1243.43 -41.94L1243.43 -41.94" stroke="rgba(23, 143, 214, 1)" stroke-width="1.5"></path><path d="M1243.43 -41.94L1306.12 85.24" stroke="rgba(23, 143, 214, 1)" stroke-width="1.5"></path><path d="M1243.43 -41.94L1455.04 -111.33" stroke="rgba(23, 143, 214, 1)" stroke-width="1.5"></path><path d="M1243.43 -41.94L1449.44 82.09" stroke="rgba(23, 143, 214, 1)" stroke-width="1.5"></path><path d="M1306.12 85.24L1306.12 85.24" stroke="rgba(23, 143, 214, 1)" stroke-width="1.5"></path><path d="M1272.44 397.94L1272.44 397.94" stroke="rgba(23, 143, 214, 1)" stroke-width="1.5"></path><path d="M1272.44 397.94L1239.44 560.21" stroke="rgba(23, 143, 214, 1)" stroke-width="1.5"></path><path d="M1272.44 397.94L1118.39 496.42" stroke="rgba(23, 143, 214, 1)" stroke-width="1.5"></path><path d="M1272.44 397.94L1093.46 352.49" stroke="rgba(23, 143, 214, 1)" stroke-width="1.5"></path><path d="M1272.44 397.94L1455.68 360.61" stroke="rgba(23, 143, 214, 1)" stroke-width="1.5"></path><path d="M1272.44 397.94L1445.87 254.48" stroke="rgba(23, 143, 214, 1)" stroke-width="1.5"></path><path d="M1272.44 397.94L1101.04 200.9" stroke="rgba(23, 143, 214, 1)" stroke-width="1.5"></path><path d="M1239.44 560.21L1239.44 560.21" stroke="rgba(23, 143, 214, 1)" stroke-width="1.5"></path><path d="M1239.44 560.21L1254.16 695.82" stroke="rgba(23, 143, 214, 1)" stroke-width="1.5"></path><path d="M1254.16 695.82L1254.16 695.82" stroke="rgba(23, 143, 214, 1)" stroke-width="1.5"></path><path d="M1254.16 695.82L1452.54 702.8" stroke="rgba(23, 143, 214, 1)" stroke-width="1.5"></path><path d="M1455.04 -111.33L1455.04 -111.33" stroke="rgba(23, 143, 214, 1)" stroke-width="1.5"></path><path d="M1455.04 -111.33L1562.91 -101.42" stroke="rgba(23, 143, 214, 1)" stroke-width="1.5"></path><path d="M1455.04 -111.33L1449.44 82.09" stroke="rgba(23, 143, 214, 1)" stroke-width="1.5"></path><path d="M1449.44 82.09L1449.44 82.09" stroke="rgba(23, 143, 214, 1)" stroke-width="1.5"></path><path d="M1449.44 82.09L1573.72 93.27" stroke="rgba(23, 143, 214, 1)" stroke-width="1.5"></path><path d="M1449.44 82.09L1306.12 85.24" stroke="rgba(23, 143, 214, 1)" stroke-width="1.5"></path><path d="M1449.44 82.09L1445.87 254.48" stroke="rgba(23, 143, 214, 1)" stroke-width="1.5"></path><path d="M1445.87 254.48L1445.87 254.48" stroke="rgba(23, 143, 214, 1)" stroke-width="1.5"></path><path d="M1445.87 254.48L1455.68 360.61" stroke="rgba(23, 143, 214, 1)" stroke-width="1.5"></path><path d="M1445.87 254.48L1586.99 200.7" stroke="rgba(23, 143, 214, 1)" stroke-width="1.5"></path><path d="M1455.68 360.61L1455.68 360.61" stroke="rgba(23, 143, 214, 1)" stroke-width="1.5"></path><path d="M1455.68 360.61L1584.8 387.2" stroke="rgba(23, 143, 214, 1)" stroke-width="1.5"></path><path d="M1455.68 360.61L1546.71 519.52" stroke="rgba(23, 143, 214, 1)" stroke-width="1.5"></path><path d="M1452.54 702.8L1452.54 702.8" stroke="rgba(23, 143, 214, 1)" stroke-width="1.5"></path><path d="M1452.54 702.8L1573.85 640.62" stroke="rgba(23, 143, 214, 1)" stroke-width="1.5"></path><path d="M1452.54 702.8L1546.71 519.52" stroke="rgba(23, 143, 214, 1)" stroke-width="1.5"></path><path d="M1452.54 702.8L1239.44 560.21" stroke="rgba(23, 143, 214, 1)" stroke-width="1.5"></path><path d="M1452.54 702.8L1133.39 661.1" stroke="rgba(23, 143, 214, 1)" stroke-width="1.5"></path><path d="M1452.54 702.8L1584.8 387.2" stroke="rgba(23, 143, 214, 1)" stroke-width="1.5"></path><path d="M1562.91 -101.42L1562.91 -101.42" stroke="rgba(23, 143, 214, 1)" stroke-width="1.5"></path><path d="M1562.91 -101.42L1573.72 93.27" stroke="rgba(23, 143, 214, 1)" stroke-width="1.5"></path><path d="M1573.72 93.27L1573.72 93.27" stroke="rgba(23, 143, 214, 1)" stroke-width="1.5"></path><path d="M1573.72 93.27L1586.99 200.7" stroke="rgba(23, 143, 214, 1)" stroke-width="1.5"></path><path d="M1586.99 200.7L1586.99 200.7" stroke="rgba(23, 143, 214, 1)" stroke-width="1.5"></path><path d="M1586.99 200.7L1449.44 82.09" stroke="rgba(23, 143, 214, 1)" stroke-width="1.5"></path><path d="M1586.99 200.7L1584.8 387.2" stroke="rgba(23, 143, 214, 1)" stroke-width="1.5"></path><path d="M1584.8 387.2L1584.8 387.2" stroke="rgba(23, 143, 214, 1)" stroke-width="1.5"></path><path d="M1584.8 387.2L1546.71 519.52" stroke="rgba(23, 143, 214, 1)" stroke-width="1.5"></path><path d="M1584.8 387.2L1445.87 254.48" stroke="rgba(23, 143, 214, 1)" stroke-width="1.5"></path><path d="M1546.71 519.52L1546.71 519.52" stroke="rgba(23, 143, 214, 1)" stroke-width="1.5"></path><path d="M1546.71 519.52L1573.85 640.62" stroke="rgba(23, 143, 214, 1)" stroke-width="1.5"></path><path d="M1573.85 640.62L1573.85 640.62" stroke="rgba(23, 143, 214, 1)" stroke-width="1.5"></path><circle r="5" cx="-59.9" cy="357.44" fill="rgba(23, 143, 214, 1)"></circle><circle r="5" cx="-67.62" cy="638.32" fill="rgba(23, 143, 214, 1)"></circle><circle r="5" cx="79.11" cy="376.31" fill="rgba(23, 143, 214, 1)"></circle><circle r="5" cx="73.9" cy="524.62" fill="rgba(23, 143, 214, 1)"></circle><circle r="5" cx="103.52" cy="655.11" fill="rgba(23, 143, 214, 1)"></circle><circle r="5" cx="259.29" cy="389.65" fill="rgba(23, 143, 214, 1)"></circle><circle r="5" cx="218.08" cy="685.69" fill="rgba(23, 143, 214, 1)"></circle><circle r="5" cx="346.14" cy="356.84" fill="rgba(23, 143, 214, 1)"></circle><circle r="5" cx="407.87" cy="558.07" fill="rgba(23, 143, 214, 1)"></circle><circle r="5" cx="372.65" cy="659.47" fill="rgba(23, 143, 214, 1)"></circle><circle r="5" cx="514.59" cy="347.69" fill="rgba(23, 143, 214, 1)"></circle><circle r="5" cx="495.89" cy="539.27" fill="rgba(23, 143, 214, 1)"></circle><circle r="5" cx="505.02" cy="711.86" fill="rgba(23, 143, 214, 1)"></circle><circle r="5" cx="654.28" cy="410.2" fill="rgba(23, 143, 214, 1)"></circle><circle r="5" cx="659.97" cy="529.8" fill="rgba(23, 143, 214, 1)"></circle><circle r="5" cx="680.2" cy="639.24" fill="rgba(23, 143, 214, 1)"></circle><circle r="5" cx="822.46" cy="195.12" fill="rgba(23, 143, 214, 1)"></circle><circle r="5" cx="824.04" cy="344.2" fill="rgba(23, 143, 214, 1)"></circle><circle r="5" cx="857.81" cy="540.6" fill="rgba(23, 143, 214, 1)"></circle><circle r="5" cx="789" cy="691.27" fill="rgba(23, 143, 214, 1)"></circle><circle r="5" cx="965.22" cy="-80.06" fill="rgba(23, 143, 214, 1)"></circle><circle r="5" cx="972.15" cy="245.75" fill="rgba(23, 143, 214, 1)"></circle><circle r="5" cx="981.49" cy="390.67" fill="rgba(23, 143, 214, 1)"></circle><circle r="5" cx="943.94" cy="529.84" fill="rgba(23, 143, 214, 1)"></circle><circle r="5" cx="1155.61" cy="-74.38" fill="rgba(23, 143, 214, 1)"></circle><circle r="5" cx="1155.59" cy="110.05" fill="rgba(23, 143, 214, 1)"></circle><circle r="5" cx="1101.04" cy="200.9" fill="rgba(23, 143, 214, 1)"></circle><circle r="5" cx="1093.46" cy="352.49" fill="rgba(23, 143, 214, 1)"></circle><circle r="5" cx="1118.39" cy="496.42" fill="rgba(23, 143, 214, 1)"></circle><circle r="5" cx="1133.39" cy="661.1" fill="rgba(23, 143, 214, 1)"></circle><circle r="5" cx="1243.43" cy="-41.94" fill="rgba(23, 143, 214, 1)"></circle><circle r="5" cx="1306.12" cy="85.24" fill="rgba(23, 143, 214, 1)"></circle><circle r="5" cx="1272.44" cy="397.94" fill="rgba(23, 143, 214, 1)"></circle><circle r="5" cx="1239.44" cy="560.21" fill="rgba(23, 143, 214, 1)"></circle><circle r="5" cx="1254.16" cy="695.82" fill="rgba(23, 143, 214, 1)"></circle><circle r="5" cx="1455.04" cy="-111.33" fill="rgba(23, 143, 214, 1)"></circle><circle r="5" cx="1449.44" cy="82.09" fill="rgba(23, 143, 214, 1)"></circle><circle r="5" cx="1445.87" cy="254.48" fill="rgba(23, 143, 214, 1)"></circle><circle r="5" cx="1455.68" cy="360.61" fill="rgba(23, 143, 214, 1)"></circle><circle r="5" cx="1452.54" cy="702.8" fill="rgba(23, 143, 214, 1)"></circle><circle r="5" cx="1562.91" cy="-101.42" fill="rgba(23, 143, 214, 1)"></circle><circle r="5" cx="1573.72" cy="93.27" fill="rgba(23, 143, 214, 1)"></circle><circle r="5" cx="1586.99" cy="200.7" fill="rgba(23, 143, 214, 1)"></circle><circle r="5" cx="1584.8" cy="387.2" fill="rgba(23, 143, 214, 1)"></circle><circle r="5" cx="1546.71" cy="519.52" fill="rgba(23, 143, 214, 1)"></circle><circle r="5" cx="1573.85" cy="640.62" fill="rgba(23, 143, 214, 1)"></circle><path d="M-49.48 514.7L-49.48 514.7" stroke="hsl(210.70000000000005, 95.7%, 35.4%)" stroke-width="1.5"></path><path d="M-49.48 514.7L45.29 494.53" stroke="hsl(210.70000000000005, 95.7%, 35.4%)" stroke-width="1.5"></path><path d="M-49.48 514.7L-55.44 684.09" stroke="hsl(210.70000000000005, 95.7%, 35.4%)" stroke-width="1.5"></path><path d="M237.26 495.21L237.26 495.21" stroke="hsl(210.70000000000005, 95.7%, 35.4%)" stroke-width="1.5"></path><path d="M237.26 495.21L255.04 649.45" stroke="hsl(210.70000000000005, 95.7%, 35.4%)" stroke-width="1.5"></path><path d="M237.26 495.21L399.32 518.76" stroke="hsl(210.70000000000005, 95.7%, 35.4%)" stroke-width="1.5"></path><path d="M237.26 495.21L45.29 494.53" stroke="hsl(210.70000000000005, 95.7%, 35.4%)" stroke-width="1.5"></path><path d="M522.18 515.63L522.18 515.63" stroke="hsl(210.70000000000005, 95.7%, 35.4%)" stroke-width="1.5"></path><path d="M522.18 515.63L399.32 518.76" stroke="hsl(210.70000000000005, 95.7%, 35.4%)" stroke-width="1.5"></path><path d="M522.18 515.63L646.9 522.1" stroke="hsl(210.70000000000005, 95.7%, 35.4%)" stroke-width="1.5"></path><path d="M522.18 515.63L492.05 637.82" stroke="hsl(210.70000000000005, 95.7%, 35.4%)" stroke-width="1.5"></path><path d="M522.18 515.63L684.22 363.4" stroke="hsl(210.70000000000005, 95.7%, 35.4%)" stroke-width="1.5"></path><path d="M852.63 532.37L852.63 532.37" stroke="hsl(210.70000000000005, 95.7%, 35.4%)" stroke-width="1.5"></path><path d="M852.63 532.37L963.86 504.11" stroke="hsl(210.70000000000005, 95.7%, 35.4%)" stroke-width="1.5"></path><path d="M852.63 532.37L821.47 650.24" stroke="hsl(210.70000000000005, 95.7%, 35.4%)" stroke-width="1.5"></path><path d="M852.63 532.37L817.44 375.39" stroke="hsl(210.70000000000005, 95.7%, 35.4%)" stroke-width="1.5"></path><path d="M852.63 532.37L967.2 382.88" stroke="hsl(210.70000000000005, 95.7%, 35.4%)" stroke-width="1.5"></path><path d="M821.47 650.24L821.47 650.24" stroke="hsl(210.70000000000005, 95.7%, 35.4%)" stroke-width="1.5"></path><path d="M821.47 650.24L701.77 679.89" stroke="hsl(210.70000000000005, 95.7%, 35.4%)" stroke-width="1.5"></path><path d="M821.47 650.24L987.16 685.29" stroke="hsl(210.70000000000005, 95.7%, 35.4%)" stroke-width="1.5"></path><path d="M821.47 650.24L963.86 504.11" stroke="hsl(210.70000000000005, 95.7%, 35.4%)" stroke-width="1.5"></path><path d="M821.47 650.24L646.9 522.1" stroke="hsl(210.70000000000005, 95.7%, 35.4%)" stroke-width="1.5"></path><path d="M821.47 650.24L817.44 375.39" stroke="hsl(210.70000000000005, 95.7%, 35.4%)" stroke-width="1.5"></path><path d="M987.02 237.23L987.02 237.23" stroke="hsl(210.70000000000005, 95.7%, 35.4%)" stroke-width="1.5"></path><path d="M987.02 237.23L1089.37 220.09" stroke="hsl(210.70000000000005, 95.7%, 35.4%)" stroke-width="1.5"></path><path d="M987.02 237.23L967.2 382.88" stroke="hsl(210.70000000000005, 95.7%, 35.4%)" stroke-width="1.5"></path><path d="M987.02 237.23L817.44 375.39" stroke="hsl(210.70000000000005, 95.7%, 35.4%)" stroke-width="1.5"></path><path d="M987.02 237.23L1125.6 406.93" stroke="hsl(210.70000000000005, 95.7%, 35.4%)" stroke-width="1.5"></path><path d="M1089.37 220.09L1089.37 220.09" stroke="hsl(210.70000000000005, 95.7%, 35.4%)" stroke-width="1.5"></path><path d="M1089.37 220.09L1259.75 212.75" stroke="hsl(210.70000000000005, 95.7%, 35.4%)" stroke-width="1.5"></path><path d="M1273.85 391.2L1273.85 391.2" stroke="hsl(210.70000000000005, 95.7%, 35.4%)" stroke-width="1.5"></path><path d="M1273.85 391.2L1125.6 406.93" stroke="hsl(210.70000000000005, 95.7%, 35.4%)" stroke-width="1.5"></path><path d="M1273.85 391.2L1238.57 545.43" stroke="hsl(210.70000000000005, 95.7%, 35.4%)" stroke-width="1.5"></path><path d="M1273.85 391.2L1259.75 212.75" stroke="hsl(210.70000000000005, 95.7%, 35.4%)" stroke-width="1.5"></path><path d="M1306.11 704.77L1306.11 704.77" stroke="hsl(210.70000000000005, 95.7%, 35.4%)" stroke-width="1.5"></path><path d="M1306.11 704.77L1455.73 689.61" stroke="hsl(210.70000000000005, 95.7%, 35.4%)" stroke-width="1.5"></path><path d="M1306.11 704.77L1238.57 545.43" stroke="hsl(210.70000000000005, 95.7%, 35.4%)" stroke-width="1.5"></path><path d="M1306.11 704.77L1108.15 654.24" stroke="hsl(210.70000000000005, 95.7%, 35.4%)" stroke-width="1.5"></path><path d="M1416.51 -40.81L1416.51 -40.81" stroke="hsl(210.70000000000005, 95.7%, 35.4%)" stroke-width="1.5"></path><path d="M1416.51 -40.81L1432.87 55.29" stroke="hsl(210.70000000000005, 95.7%, 35.4%)" stroke-width="1.5"></path><path d="M1416.51 -40.81L1308.09 -84.45" stroke="hsl(210.70000000000005, 95.7%, 35.4%)" stroke-width="1.5"></path><path d="M1432.87 55.29L1432.87 55.29" stroke="hsl(210.70000000000005, 95.7%, 35.4%)" stroke-width="1.5"></path><path d="M1432.87 55.29L1272.74 73.45" stroke="hsl(210.70000000000005, 95.7%, 35.4%)" stroke-width="1.5"></path><path d="M1432.87 55.29L1590.12 105" stroke="hsl(210.70000000000005, 95.7%, 35.4%)" stroke-width="1.5"></path><path d="M1432.87 55.29L1444.6 232.53" stroke="hsl(210.70000000000005, 95.7%, 35.4%)" stroke-width="1.5"></path><path d="M1444.6 232.53L1444.6 232.53" stroke="hsl(210.70000000000005, 95.7%, 35.4%)" stroke-width="1.5"></path><path d="M1444.6 232.53L1591.5 224.8" stroke="hsl(210.70000000000005, 95.7%, 35.4%)" stroke-width="1.5"></path><path d="M1444.6 232.53L1259.75 212.75" stroke="hsl(210.70000000000005, 95.7%, 35.4%)" stroke-width="1.5"></path><path d="M1455.73 689.61L1455.73 689.61" stroke="hsl(210.70000000000005, 95.7%, 35.4%)" stroke-width="1.5"></path><path d="M1455.73 689.61L1596.04 669.87" stroke="hsl(210.70000000000005, 95.7%, 35.4%)" stroke-width="1.5"></path><path d="M1596.04 669.87L1596.04 669.87" stroke="hsl(210.70000000000005, 95.7%, 35.4%)" stroke-width="1.5"></path><path d="M1596.04 669.87L1563.01 542.69" stroke="hsl(210.70000000000005, 95.7%, 35.4%)" stroke-width="1.5"></path><path d="M1596.04 669.87L1451.07 520.96" stroke="hsl(210.70000000000005, 95.7%, 35.4%)" stroke-width="1.5"></path><path d="M1596.04 669.87L1560.02 393.58" stroke="hsl(210.70000000000005, 95.7%, 35.4%)" stroke-width="1.5"></path><path d="M1596.04 669.87L1306.11 704.77" stroke="hsl(210.70000000000005, 95.7%, 35.4%)" stroke-width="1.5"></path><path d="M-55.44 684.09L-55.44 684.09" stroke="hsl(210.70000000000005, 95.7%, 35.4%)" stroke-width="1.5"></path><path d="M-55.44 684.09L51.1 664.2" stroke="hsl(210.70000000000005, 95.7%, 35.4%)" stroke-width="1.5"></path><path d="M-55.44 684.09L45.29 494.53" stroke="hsl(210.70000000000005, 95.7%, 35.4%)" stroke-width="1.5"></path><path d="M45.29 494.53L45.29 494.53" stroke="hsl(210.70000000000005, 95.7%, 35.4%)" stroke-width="1.5"></path><path d="M45.29 494.53L51.1 664.2" stroke="hsl(210.70000000000005, 95.7%, 35.4%)" stroke-width="1.5"></path><path d="M51.1 664.2L51.1 664.2" stroke="hsl(210.70000000000005, 95.7%, 35.4%)" stroke-width="1.5"></path><path d="M51.1 664.2L-49.48 514.7" stroke="hsl(210.70000000000005, 95.7%, 35.4%)" stroke-width="1.5"></path><path d="M51.1 664.2L255.04 649.45" stroke="hsl(210.70000000000005, 95.7%, 35.4%)" stroke-width="1.5"></path><path d="M51.1 664.2L237.26 495.21" stroke="hsl(210.70000000000005, 95.7%, 35.4%)" stroke-width="1.5"></path><path d="M51.1 664.2L366.3 710.24" stroke="hsl(210.70000000000005, 95.7%, 35.4%)" stroke-width="1.5"></path><path d="M255.04 649.45L255.04 649.45" stroke="hsl(210.70000000000005, 95.7%, 35.4%)" stroke-width="1.5"></path><path d="M255.04 649.45L366.3 710.24" stroke="hsl(210.70000000000005, 95.7%, 35.4%)" stroke-width="1.5"></path><path d="M255.04 649.45L399.32 518.76" stroke="hsl(210.70000000000005, 95.7%, 35.4%)" stroke-width="1.5"></path><path d="M399.32 518.76L399.32 518.76" stroke="hsl(210.70000000000005, 95.7%, 35.4%)" stroke-width="1.5"></path><path d="M399.32 518.76L492.05 637.82" stroke="hsl(210.70000000000005, 95.7%, 35.4%)" stroke-width="1.5"></path><path d="M399.32 518.76L366.3 710.24" stroke="hsl(210.70000000000005, 95.7%, 35.4%)" stroke-width="1.5"></path><path d="M399.32 518.76L646.9 522.1" stroke="hsl(210.70000000000005, 95.7%, 35.4%)" stroke-width="1.5"></path><path d="M366.3 710.24L366.3 710.24" stroke="hsl(210.70000000000005, 95.7%, 35.4%)" stroke-width="1.5"></path><path d="M366.3 710.24L492.05 637.82" stroke="hsl(210.70000000000005, 95.7%, 35.4%)" stroke-width="1.5"></path><path d="M366.3 710.24L522.18 515.63" stroke="hsl(210.70000000000005, 95.7%, 35.4%)" stroke-width="1.5"></path><path d="M492.05 637.82L492.05 637.82" stroke="hsl(210.70000000000005, 95.7%, 35.4%)" stroke-width="1.5"></path><path d="M492.05 637.82L646.9 522.1" stroke="hsl(210.70000000000005, 95.7%, 35.4%)" stroke-width="1.5"></path><path d="M684.22 363.4L684.22 363.4" stroke="hsl(210.70000000000005, 95.7%, 35.4%)" stroke-width="1.5"></path><path d="M684.22 363.4L817.44 375.39" stroke="hsl(210.70000000000005, 95.7%, 35.4%)" stroke-width="1.5"></path><path d="M646.9 522.1L646.9 522.1" stroke="hsl(210.70000000000005, 95.7%, 35.4%)" stroke-width="1.5"></path><path d="M646.9 522.1L684.22 363.4" stroke="hsl(210.70000000000005, 95.7%, 35.4%)" stroke-width="1.5"></path><path d="M646.9 522.1L701.77 679.89" stroke="hsl(210.70000000000005, 95.7%, 35.4%)" stroke-width="1.5"></path><path d="M646.9 522.1L852.63 532.37" stroke="hsl(210.70000000000005, 95.7%, 35.4%)" stroke-width="1.5"></path><path d="M701.77 679.89L701.77 679.89" stroke="hsl(210.70000000000005, 95.7%, 35.4%)" stroke-width="1.5"></path><path d="M701.77 679.89L852.63 532.37" stroke="hsl(210.70000000000005, 95.7%, 35.4%)" stroke-width="1.5"></path><path d="M701.77 679.89L492.05 637.82" stroke="hsl(210.70000000000005, 95.7%, 35.4%)" stroke-width="1.5"></path><path d="M817.44 375.39L817.44 375.39" stroke="hsl(210.70000000000005, 95.7%, 35.4%)" stroke-width="1.5"></path><path d="M817.44 375.39L967.2 382.88" stroke="hsl(210.70000000000005, 95.7%, 35.4%)" stroke-width="1.5"></path><path d="M817.44 375.39L963.86 504.11" stroke="hsl(210.70000000000005, 95.7%, 35.4%)" stroke-width="1.5"></path><path d="M967.2 382.88L967.2 382.88" stroke="hsl(210.70000000000005, 95.7%, 35.4%)" stroke-width="1.5"></path><path d="M967.2 382.88L963.86 504.11" stroke="hsl(210.70000000000005, 95.7%, 35.4%)" stroke-width="1.5"></path><path d="M963.86 504.11L963.86 504.11" stroke="hsl(210.70000000000005, 95.7%, 35.4%)" stroke-width="1.5"></path><path d="M963.86 504.11L1104.29 524.31" stroke="hsl(210.70000000000005, 95.7%, 35.4%)" stroke-width="1.5"></path><path d="M987.16 685.29L987.16 685.29" stroke="hsl(210.70000000000005, 95.7%, 35.4%)" stroke-width="1.5"></path><path d="M987.16 685.29L1108.15 654.24" stroke="hsl(210.70000000000005, 95.7%, 35.4%)" stroke-width="1.5"></path><path d="M987.16 685.29L963.86 504.11" stroke="hsl(210.70000000000005, 95.7%, 35.4%)" stroke-width="1.5"></path><path d="M1125.6 406.93L1125.6 406.93" stroke="hsl(210.70000000000005, 95.7%, 35.4%)" stroke-width="1.5"></path><path d="M1125.6 406.93L1104.29 524.31" stroke="hsl(210.70000000000005, 95.7%, 35.4%)" stroke-width="1.5"></path><path d="M1104.29 524.31L1104.29 524.31" stroke="hsl(210.70000000000005, 95.7%, 35.4%)" stroke-width="1.5"></path><path d="M1104.29 524.31L1108.15 654.24" stroke="hsl(210.70000000000005, 95.7%, 35.4%)" stroke-width="1.5"></path><path d="M1104.29 524.31L1238.57 545.43" stroke="hsl(210.70000000000005, 95.7%, 35.4%)" stroke-width="1.5"></path><path d="M1108.15 654.24L1108.15 654.24" stroke="hsl(210.70000000000005, 95.7%, 35.4%)" stroke-width="1.5"></path><path d="M1108.15 654.24L1238.57 545.43" stroke="hsl(210.70000000000005, 95.7%, 35.4%)" stroke-width="1.5"></path><path d="M1108.15 654.24L963.86 504.11" stroke="hsl(210.70000000000005, 95.7%, 35.4%)" stroke-width="1.5"></path><path d="M1108.15 654.24L1125.6 406.93" stroke="hsl(210.70000000000005, 95.7%, 35.4%)" stroke-width="1.5"></path><path d="M1308.09 -84.45L1308.09 -84.45" stroke="hsl(210.70000000000005, 95.7%, 35.4%)" stroke-width="1.5"></path><path d="M1308.09 -84.45L1272.74 73.45" stroke="hsl(210.70000000000005, 95.7%, 35.4%)" stroke-width="1.5"></path><path d="M1308.09 -84.45L1432.87 55.29" stroke="hsl(210.70000000000005, 95.7%, 35.4%)" stroke-width="1.5"></path><path d="M1272.74 73.45L1272.74 73.45" stroke="hsl(210.70000000000005, 95.7%, 35.4%)" stroke-width="1.5"></path><path d="M1272.74 73.45L1259.75 212.75" stroke="hsl(210.70000000000005, 95.7%, 35.4%)" stroke-width="1.5"></path><path d="M1259.75 212.75L1259.75 212.75" stroke="hsl(210.70000000000005, 95.7%, 35.4%)" stroke-width="1.5"></path><path d="M1238.57 545.43L1238.57 545.43" stroke="hsl(210.70000000000005, 95.7%, 35.4%)" stroke-width="1.5"></path><path d="M1451.07 520.96L1451.07 520.96" stroke="hsl(210.70000000000005, 95.7%, 35.4%)" stroke-width="1.5"></path><path d="M1451.07 520.96L1563.01 542.69" stroke="hsl(210.70000000000005, 95.7%, 35.4%)" stroke-width="1.5"></path><path d="M1451.07 520.96L1560.02 393.58" stroke="hsl(210.70000000000005, 95.7%, 35.4%)" stroke-width="1.5"></path><path d="M1574.59 -79.21L1574.59 -79.21" stroke="hsl(210.70000000000005, 95.7%, 35.4%)" stroke-width="1.5"></path><path d="M1574.59 -79.21L1416.51 -40.81" stroke="hsl(210.70000000000005, 95.7%, 35.4%)" stroke-width="1.5"></path><path d="M1574.59 -79.21L1590.12 105" stroke="hsl(210.70000000000005, 95.7%, 35.4%)" stroke-width="1.5"></path><path d="M1574.59 -79.21L1432.87 55.29" stroke="hsl(210.70000000000005, 95.7%, 35.4%)" stroke-width="1.5"></path><path d="M1574.59 -79.21L1308.09 -84.45" stroke="hsl(210.70000000000005, 95.7%, 35.4%)" stroke-width="1.5"></path><path d="M1574.59 -79.21L1591.5 224.8" stroke="hsl(210.70000000000005, 95.7%, 35.4%)" stroke-width="1.5"></path><path d="M1574.59 -79.21L1444.6 232.53" stroke="hsl(210.70000000000005, 95.7%, 35.4%)" stroke-width="1.5"></path><path d="M1590.12 105L1590.12 105" stroke="hsl(210.70000000000005, 95.7%, 35.4%)" stroke-width="1.5"></path><path d="M1590.12 105L1591.5 224.8" stroke="hsl(210.70000000000005, 95.7%, 35.4%)" stroke-width="1.5"></path><path d="M1591.5 224.8L1591.5 224.8" stroke="hsl(210.70000000000005, 95.7%, 35.4%)" stroke-width="1.5"></path><path d="M1591.5 224.8L1560.02 393.58" stroke="hsl(210.70000000000005, 95.7%, 35.4%)" stroke-width="1.5"></path><path d="M1591.5 224.8L1432.87 55.29" stroke="hsl(210.70000000000005, 95.7%, 35.4%)" stroke-width="1.5"></path><path d="M1560.02 393.58L1560.02 393.58" stroke="hsl(210.70000000000005, 95.7%, 35.4%)" stroke-width="1.5"></path><path d="M1560.02 393.58L1563.01 542.69" stroke="hsl(210.70000000000005, 95.7%, 35.4%)" stroke-width="1.5"></path><path d="M1563.01 542.69L1563.01 542.69" stroke="hsl(210.70000000000005, 95.7%, 35.4%)" stroke-width="1.5"></path><circle r="25" cx="-49.48" cy="514.7" fill="url(&quot;#SvgjsRadialGradient1739&quot;)"></circle><circle r="25" cx="237.26" cy="495.21" fill="url(&quot;#SvgjsRadialGradient1739&quot;)"></circle><circle r="25" cx="522.18" cy="515.63" fill="url(&quot;#SvgjsRadialGradient1739&quot;)"></circle><circle r="25" cx="852.63" cy="532.37" fill="url(&quot;#SvgjsRadialGradient1739&quot;)"></circle><circle r="25" cx="821.47" cy="650.24" fill="url(&quot;#SvgjsRadialGradient1739&quot;)"></circle><circle r="25" cx="987.02" cy="237.23" fill="url(&quot;#SvgjsRadialGradient1739&quot;)"></circle><circle r="25" cx="1089.37" cy="220.09" fill="url(&quot;#SvgjsRadialGradient1739&quot;)"></circle><circle r="25" cx="1273.85" cy="391.2" fill="url(&quot;#SvgjsRadialGradient1739&quot;)"></circle><circle r="25" cx="1306.11" cy="704.77" fill="url(&quot;#SvgjsRadialGradient1739&quot;)"></circle><circle r="25" cx="1416.51" cy="-40.81" fill="url(&quot;#SvgjsRadialGradient1739&quot;)"></circle><circle r="25" cx="1432.87" cy="55.29" fill="url(&quot;#SvgjsRadialGradient1739&quot;)"></circle><circle r="25" cx="1444.6" cy="232.53" fill="url(&quot;#SvgjsRadialGradient1739&quot;)"></circle><circle r="25" cx="1455.73" cy="689.61" fill="url(&quot;#SvgjsRadialGradient1739&quot;)"></circle><circle r="25" cx="1596.04" cy="669.87" fill="url(&quot;#SvgjsRadialGradient1739&quot;)"></circle><circle r="5" cx="-55.44" cy="684.09" fill="#81a2c4"></circle><circle r="5" cx="45.29" cy="494.53" fill="#81a2c4"></circle><circle r="5" cx="51.1" cy="664.2" fill="#81a2c4"></circle><circle r="5" cx="255.04" cy="649.45" fill="#81a2c4"></circle><circle r="5" cx="399.32" cy="518.76" fill="#81a2c4"></circle><circle r="5" cx="366.3" cy="710.24" fill="#81a2c4"></circle><circle r="5" cx="492.05" cy="637.82" fill="#81a2c4"></circle><circle r="5" cx="684.22" cy="363.4" fill="#81a2c4"></circle><circle r="5" cx="646.9" cy="522.1" fill="#81a2c4"></circle><circle r="5" cx="701.77" cy="679.89" fill="#81a2c4"></circle><circle r="5" cx="817.44" cy="375.39" fill="#81a2c4"></circle><circle r="5" cx="967.2" cy="382.88" fill="#81a2c4"></circle><circle r="5" cx="963.86" cy="504.11" fill="#81a2c4"></circle><circle r="5" cx="987.16" cy="685.29" fill="#81a2c4"></circle><circle r="5" cx="1125.6" cy="406.93" fill="#81a2c4"></circle><circle r="5" cx="1104.29" cy="524.31" fill="#81a2c4"></circle><circle r="5" cx="1108.15" cy="654.24" fill="#81a2c4"></circle><circle r="5" cx="1308.09" cy="-84.45" fill="#81a2c4"></circle><circle r="5" cx="1272.74" cy="73.45" fill="#81a2c4"></circle><circle r="5" cx="1259.75" cy="212.75" fill="#81a2c4"></circle><circle r="5" cx="1238.57" cy="545.43" fill="#81a2c4"></circle><circle r="5" cx="1451.07" cy="520.96" fill="#81a2c4"></circle><circle r="5" cx="1574.59" cy="-79.21" fill="#81a2c4"></circle><circle r="5" cx="1590.12" cy="105" fill="#81a2c4"></circle><circle r="5" cx="1591.5" cy="224.8" fill="#81a2c4"></circle><circle r="5" cx="1560.02" cy="393.58" fill="#81a2c4"></circle><circle r="5" cx="1563.01" cy="542.69" fill="#81a2c4"></circle></g><defs><mask id="SvgjsMask1737"><rect width="1440" height="560" fill="#ffffff"></rect></mask><linearGradient x1="15.28%" y1="-39.29%" x2="84.72%" y2="139.29%" gradientUnits="userSpaceOnUse" id="SvgjsLinearGradient1738"><stop stop-color="rgba(3, 68, 136, 1)" offset="0.46"></stop><stop stop-color="rgba(23, 143, 214, 1)" offset="1"></stop></linearGradient><radialGradient id="SvgjsRadialGradient1739"><stop stop-color="#ffffff" offset="0.1"></stop><stop stop-color="rgba(3, 68, 136, 1)" offset="0.2"></stop><stop stop-color="rgba(3, 68, 136, 0)" offset="1"></stop></radialGradient></defs></svg>